<?xml version="1.0" encoding="UTF-8"?>
<!DOCTYPE svg PUBLIC "-//W3C//DTD SVG 1.1//EN" "http://www.w3.org/Graphics/SVG/1.1/DTD/svg11.dtd">
<!-- Creator: CorelDRAW -->
<svg xmlns="http://www.w3.org/2000/svg" xml:space="preserve" width="4.76669in" height="4.75189in" version="1.1" style="shape-rendering:geometricPrecision; text-rendering:geometricPrecision; image-rendering:optimizeQuality; fill-rule:evenodd; clip-rule:evenodd"
viewBox="0 0 4766.69 4751.89"
 xmlns:xlink="http://www.w3.org/1999/xlink"
 xmlns:xodm="http://www.corel.com/coreldraw/odm/2003">
 <defs>
  <style type="text/css">
   <![CDATA[
    .fil0 {fill:white}
   ]]>
  </style>
 </defs>
 <g id="Layer_x0020_1">
  <metadata id="CorelCorpID_0Corel-Layer"/>
  <path class="fil0" d="M3118.26 986.84c-99.72,54.36 -609.88,634.66 -728.15,708.44 -75.56,-38.8 -324.88,-346.92 -430.22,-406.35 -9.85,-35.74 -966.17,-987.44 -1103.49,-1119.37 -255.46,-245.44 -589.22,-189.53 -758.17,47.34 -146.33,205.16 -83.6,761.78 -87.87,1041.85l0.37 1208.92 -0.21 663.34 -0.26 808.7c-0.38,174.63 -21.02,369.61 38.52,522.9 52.46,135.08 153.58,219.3 285.11,268.75 267.65,100.65 620.32,-64.93 646.33,-444.78l0.48 -950.94 0.32 -1056.87 0.33 -597.81c48.94,26.03 156.75,151.18 206.91,197.5 68.8,63.53 143.49,160.11 210.14,201.02 30.6,54.29 366.38,372.95 443.24,450.54 160.2,161.69 292.53,351.13 562.75,343.6 255.54,-7.13 382.17,-196.97 539.93,-350.98 68.85,-67.21 422.62,-405.71 447.43,-459.75 47.2,-21.54 463.82,-449.96 531.66,-519.02 90.14,-91.76 174.34,-173.56 263.3,-263.9 50.16,-50.94 230.34,-213.19 258.04,-271.51 26.84,-11.81 4.13,2.6 33.17,-20.76 9.98,-8.03 16.72,-15.5 28.47,-27.35 56.31,-56.79 136.18,-130.1 178.52,-195.92 247.31,-384.4 -109.85,-865.79 -549.09,-729.89 -181.91,56.28 -395.96,322.28 -531.04,454.83l-367.33 368.18c-44.57,45.37 -94.84,85.11 -119.19,129.3zm712.64 3152.89c1.02,-4.14 2.13,-8.24 3.34,-12.29 -1.21,4.05 -2.33,8.15 -3.34,12.29zm3.38 -12.42c1.06,-3.53 2.19,-7.03 3.38,-10.5 -8.81,23.12 -17.15,45.07 -22.89,60.75l0.64 -1.39c-55.75,119.21 7.74,349.3 164.44,478.17 364.52,299.78 895.11,-77.87 768.24,-491.34 -61.44,-200.22 -268.66,-281.79 -326.02,-413.69 -1.91,-4.21 -9.5,-18.48 -10.79,-21.47l-35.65 -83.98c-9.09,-142.82 -4.52,-148.75 46.09,-272.79 181.67,-195.9 354.5,-291.08 341.1,-542.84 -12.4,-232.79 -205.09,-430.28 -442.66,-448.59 -259.2,-19.98 -470.14,162.95 -513.33,383.02 -47.67,242.91 96.75,386.04 252.31,520.88l35.14 33.73c1.89,1.94 4.78,5.14 6.58,7.01l13.27 13.68c1.29,1.33 4.29,4.63 6.59,6.79 251.07,439.66 -209.48,525.23 -286.45,782.55zm-18.84 48.81c1.91,-4.09 3.96,-8.04 6.16,-11.85 -2.19,3.81 -4.25,7.77 -6.16,11.85zm6.22 -11.96c1.07,-1.87 2.18,-3.7 3.33,-5.5 -1.14,1.8 -2.25,3.63 -3.33,5.5zm3.43 -5.66c1.16,-1.81 2.35,-3.6 3.57,-5.35 -1.23,1.74 -2.42,3.53 -3.57,5.35zm3.6 -5.39c1.24,-1.76 2.52,-3.49 3.83,-5.18 -1.31,1.69 -2.59,3.41 -3.83,5.18zm3.84 -5.19c1.32,-1.7 2.67,-3.35 4.06,-4.98 -1.39,1.62 -2.74,3.28 -4.06,4.98z"/>
 </g>
</svg>
